<svg width="129" height="129" viewBox="0 0 129 129" fill="none" xmlns="http://www.w3.org/2000/svg">
<rect width="129" height="129" rx="64.5" fill="white"/>
<path d="M46.582 42.8238V63.9223L29 51.6148V30.2444C29 28.4526 30.4526 27 32.2444 27H89.867C97.0343 27 102.845 32.8102 102.845 39.9775V83.5345C102.845 85.3263 101.392 86.7789 99.6001 86.7789H72.9551V70.9551H87.0207V42.8238H46.582Z" fill="#1877F2"/>
<path d="M32.2444 86.7777H39.8212C41.6131 86.7777 43.0656 88.2303 43.0656 90.0221V103.848C43.0656 105.487 45.2212 106.092 46.0736 104.691L56.025 88.3357C56.6137 87.3682 57.6642 86.7777 58.7966 86.7777H67.6805V70.9539H47.6047C46.9391 70.9539 46.2895 70.7492 45.7442 70.3674L29 58.6465V83.5334C29 85.3252 30.4526 86.7777 32.2444 86.7777Z" fill="black"/>
</svg>
